<svg xmlns="http://www.w3.org/2000/svg" width="96" height="64" viewBox="0 0 96 64"><defs>
<linearGradient id="stone" x2=".7" y2="1"><stop stop-color="#678991"/><stop offset=".5" stop-color="#314f62"/><stop offset="1" stop-color="#182f45"/></linearGradient>
<linearGradient id="gold" x2=".8" y2="1"><stop stop-color="#fff1bf"/><stop offset=".5" stop-color="#dfaa56"/><stop offset="1" stop-color="#976034"/></linearGradient>
<linearGradient id="leaf" x2=".6" y2="1"><stop stop-color="#90b38a"/><stop offset="1" stop-color="#345f53"/></linearGradient>
<linearGradient id="fur" x2=".8" y2="1"><stop stop-color="#f3b276"/><stop offset=".55" stop-color="#cf754c"/><stop offset="1" stop-color="#703d43"/></linearGradient>
<linearGradient id="ice" x2=".6" y2="1"><stop stop-color="#e2ffec"/><stop offset=".45" stop-color="#87ded9"/><stop offset="1" stop-color="#337d9c"/></linearGradient>
<linearGradient id="wing" x2=".8" y2="1"><stop stop-color="#e1c2e2"/><stop offset=".5" stop-color="#9d82bd"/><stop offset="1" stop-color="#564a82"/></linearGradient>
<linearGradient id="sky" x2="0" y2="1"><stop stop-color="#183944"/><stop offset=".5" stop-color="#587d6c"/><stop offset="1" stop-color="#bed3a1"/></linearGradient>
<radialGradient id="glow"><stop stop-color="#ffe8a4" stop-opacity=".8"/><stop offset=".4" stop-color="#e8bd6b" stop-opacity=".23"/><stop offset="1" stop-color="#f4bd5c" stop-opacity="0"/></radialGradient>
</defs><ellipse cx="48" cy="37" rx="43" ry="19" fill="#284c43" opacity=".8"/><path d="M9 32L48 14L86 32L48 50Z" fill="#607e67" stroke="#bdd1a0" stroke-width="1.5" stroke-linecap="round" stroke-linejoin="round" /><path d="M9 32V40L48 58L86 40V32M48 50V58" fill="none" stroke="#3b5d50" stroke-width="2" stroke-linecap="round" stroke-linejoin="round" /><path d="M48 25V41M40 33H56" fill="none" stroke="#f2dfac" stroke-width="2" stroke-linecap="round" stroke-linejoin="round" /><path d="M19 33L31 27M65 26L77 32M34 44L45 49M55 48L66 42" fill="none" stroke="#91a67d" stroke-width="1" stroke-linecap="round" stroke-linejoin="round" /></svg>
