<svg xmlns="http://www.w3.org/2000/svg" width="320" height="240" viewBox="0 0 320 240">
<defs>
    <radialGradient id="back"><stop stop-color="#24445b"/><stop offset="1" stop-color="#081722"/></radialGradient>
    <radialGradient id="aura"><stop stop-color="#7bbecf" stop-opacity=".45"/><stop offset="1" stop-color="#7bbecf" stop-opacity="0"/></radialGradient>
    <linearGradient id="metal" x1="0" y1="0" x2="1" y2=".8"><stop stop-color="#dcffff"/><stop offset=".4" stop-color="#7bbecf"/><stop offset=".68" stop-color="#2d486f"/><stop offset="1" stop-color="#7bbecf"/></linearGradient>
    <linearGradient id="cloth" x1="0" y1="0" x2=".8" y2="1"><stop stop-color="#488c99"/><stop offset=".55" stop-color="#234862"/><stop offset="1" stop-color="#0c202f"/></linearGradient>
    <linearGradient id="blade" x1="0" y1="0" x2="1" y2="0"><stop stop-color="#eef8e4"/><stop offset=".45" stop-color="#c5dfd5"/><stop offset=".48" stop-color="#557589"/><stop offset="1" stop-color="#a0c4bf"/></linearGradient>
    <linearGradient id="skin" x1="0" y1="0" x2="1" y2="1"><stop stop-color="#f3d9ad"/><stop offset=".55" stop-color="#d7ad84"/><stop offset="1" stop-color="#8e6965"/></linearGradient>
    <radialGradient id="orb"><stop stop-color="#ffffe1"/><stop offset=".3" stop-color="#dcffff"/><stop offset=".7" stop-color="#7bbecf"/><stop offset="1" stop-color="#2d486f"/></radialGradient>
    </defs><rect width="320" height="240" fill="url(#back)"/><circle cx="162" cy="102" r="134" fill="url(#aura)" stroke="none" stroke-width="1" /><circle cx="162" cy="111" r="74" fill="none" stroke="#a8eeeb" stroke-width="0.7" opacity=".18"/><circle cx="162" cy="111" r="88" fill="none" stroke="#a8eeeb" stroke-width="0.7" opacity=".18"/><circle cx="162" cy="111" r="91" fill="none" stroke="#a8eeeb" stroke-width="0.7" opacity=".18"/><circle cx="162" cy="111" r="111" fill="none" stroke="#a8eeeb" stroke-width="0.7" opacity=".18"/><path d="M235.6 57.5L240.5 54.0" fill="none" stroke="#a8eeeb" stroke-width="0.8" stroke-linejoin="round" stroke-linecap="round" opacity=".4"/><path d="M219.3 40.3L223.0 35.6" fill="none" stroke="#a8eeeb" stroke-width="0.8" stroke-linejoin="round" stroke-linecap="round" opacity=".4"/><path d="M199.0 27.9L201.5 22.4" fill="none" stroke="#a8eeeb" stroke-width="0.8" stroke-linejoin="round" stroke-linecap="round" opacity=".4"/><path d="M176.2 21.1L177.2 15.2" fill="none" stroke="#a8eeeb" stroke-width="0.8" stroke-linejoin="round" stroke-linecap="round" opacity=".4"/><path d="M152.5 20.5L151.9 14.5" fill="none" stroke="#a8eeeb" stroke-width="0.8" stroke-linejoin="round" stroke-linecap="round" opacity=".4"/><path d="M129.4 26.0L127.2 20.4" fill="none" stroke="#a8eeeb" stroke-width="0.8" stroke-linejoin="round" stroke-linecap="round" opacity=".4"/><path d="M108.5 37.4L105.0 32.5" fill="none" stroke="#a8eeeb" stroke-width="0.8" stroke-linejoin="round" stroke-linecap="round" opacity=".4"/><path d="M91.3 53.7L86.6 50.0" fill="none" stroke="#a8eeeb" stroke-width="0.8" stroke-linejoin="round" stroke-linecap="round" opacity=".4"/><path d="M78.9 74.0L73.4 71.5" fill="none" stroke="#a8eeeb" stroke-width="0.8" stroke-linejoin="round" stroke-linecap="round" opacity=".4"/><path d="M72.1 96.8L66.2 95.8" fill="none" stroke="#a8eeeb" stroke-width="0.8" stroke-linejoin="round" stroke-linecap="round" opacity=".4"/><path d="M71.5 120.5L65.5 121.1" fill="none" stroke="#a8eeeb" stroke-width="0.8" stroke-linejoin="round" stroke-linecap="round" opacity=".4"/><path d="M77.0 143.6L71.4 145.8" fill="none" stroke="#a8eeeb" stroke-width="0.8" stroke-linejoin="round" stroke-linecap="round" opacity=".4"/><path d="M88.4 164.5L83.5 168.0" fill="none" stroke="#a8eeeb" stroke-width="0.8" stroke-linejoin="round" stroke-linecap="round" opacity=".4"/><path d="M104.7 181.7L101.0 186.4" fill="none" stroke="#a8eeeb" stroke-width="0.8" stroke-linejoin="round" stroke-linecap="round" opacity=".4"/><path d="M125.0 194.1L122.5 199.6" fill="none" stroke="#a8eeeb" stroke-width="0.8" stroke-linejoin="round" stroke-linecap="round" opacity=".4"/><path d="M147.8 200.9L146.8 206.8" fill="none" stroke="#a8eeeb" stroke-width="0.8" stroke-linejoin="round" stroke-linecap="round" opacity=".4"/><path d="M171.5 201.5L172.1 207.5" fill="none" stroke="#a8eeeb" stroke-width="0.8" stroke-linejoin="round" stroke-linecap="round" opacity=".4"/><path d="M194.6 196.0L196.8 201.6" fill="none" stroke="#a8eeeb" stroke-width="0.8" stroke-linejoin="round" stroke-linecap="round" opacity=".4"/><path d="M215.5 184.6L219.0 189.5" fill="none" stroke="#a8eeeb" stroke-width="0.8" stroke-linejoin="round" stroke-linecap="round" opacity=".4"/><path d="M232.7 168.3L237.4 172.0" fill="none" stroke="#a8eeeb" stroke-width="0.8" stroke-linejoin="round" stroke-linecap="round" opacity=".4"/><path d="M245.1 148.0L250.6 150.5" fill="none" stroke="#a8eeeb" stroke-width="0.8" stroke-linejoin="round" stroke-linecap="round" opacity=".4"/><path d="M251.9 125.2L257.8 126.2" fill="none" stroke="#a8eeeb" stroke-width="0.8" stroke-linejoin="round" stroke-linecap="round" opacity=".4"/><path d="M252.5 101.5L258.5 100.9" fill="none" stroke="#a8eeeb" stroke-width="0.8" stroke-linejoin="round" stroke-linecap="round" opacity=".4"/><path d="M247.0 78.4L252.6 76.2" fill="none" stroke="#a8eeeb" stroke-width="0.8" stroke-linejoin="round" stroke-linecap="round" opacity=".4"/><circle cx="93.72" cy="166.12" r="0.5" fill="#e6e5ed" stroke="none" stroke-width="1" opacity="0.51"/><circle cx="86.34" cy="123.12" r="1.5" fill="#a8eeeb" stroke="none" stroke-width="1" opacity="0.52"/><circle cx="231.85" cy="205.1" r="1.5" fill="#a8eeeb" stroke="none" stroke-width="1" opacity="0.34"/><circle cx="50.5" cy="55.41" r="0.8" fill="#a8eeeb" stroke="none" stroke-width="1" opacity="0.29"/><circle cx="88.06" cy="51.14" r="0.8" fill="#e6e5ed" stroke="none" stroke-width="1" opacity="0.34"/><circle cx="24.69" cy="125.69" r="1.1" fill="#edc88a" stroke="none" stroke-width="1" opacity="0.56"/><circle cx="225.83" cy="139.72" r="0.8" fill="#e6e5ed" stroke="none" stroke-width="1" opacity="0.25"/><circle cx="305.12" cy="16.03" r="0.5" fill="#a8eeeb" stroke="none" stroke-width="1" opacity="0.42"/><circle cx="294.98" cy="181.44" r="0.5" fill="#edc88a" stroke="none" stroke-width="1" opacity="0.49"/><circle cx="167.93" cy="137.47" r="1.1" fill="#e6e5ed" stroke="none" stroke-width="1" opacity="0.57"/><circle cx="83.6" cy="118.51" r="0.8" fill="#a8eeeb" stroke="none" stroke-width="1" opacity="0.37"/><circle cx="124.77" cy="27.01" r="0.5" fill="#e6e5ed" stroke="none" stroke-width="1" opacity="0.22"/><circle cx="224.57" cy="39.27" r="1.1" fill="#a8eeeb" stroke="none" stroke-width="1" opacity="0.24"/><circle cx="298.21" cy="116.88" r="0.5" fill="#a8eeeb" stroke="none" stroke-width="1" opacity="0.36"/><circle cx="62.01" cy="155.14" r="0.5" fill="#a8eeeb" stroke="none" stroke-width="1" opacity="0.27"/><circle cx="261.75" cy="36.3" r="0.8" fill="#a8eeeb" stroke="none" stroke-width="1" opacity="0.37"/><circle cx="242.99" cy="37.19" r="1.5" fill="#a8eeeb" stroke="none" stroke-width="1" opacity="0.54"/><circle cx="242.38" cy="149.86" r="0.5" fill="#a8eeeb" stroke="none" stroke-width="1" opacity="0.16"/><circle cx="67.19" cy="165.18" r="0.8" fill="#a8eeeb" stroke="none" stroke-width="1" opacity="0.27"/><circle cx="79.82" cy="55.36" r="1.5" fill="#edc88a" stroke="none" stroke-width="1" opacity="0.57"/><circle cx="61.37" cy="52.42" r="0.8" fill="#a8eeeb" stroke="none" stroke-width="1" opacity="0.45"/><circle cx="254.15" cy="74.27" r="0.5" fill="#e6e5ed" stroke="none" stroke-width="1" opacity="0.30"/><circle cx="32.98" cy="169.51" r="0.5" fill="#edc88a" stroke="none" stroke-width="1" opacity="0.41"/><circle cx="178.22" cy="75.14" r="1.1" fill="#a8eeeb" stroke="none" stroke-width="1" opacity="0.38"/><circle cx="54.55" cy="194.56" r="0.8" fill="#a8eeeb" stroke="none" stroke-width="1" opacity="0.57"/><circle cx="299.79" cy="142.94" r="1.1" fill="#e6e5ed" stroke="none" stroke-width="1" opacity="0.49"/><circle cx="271.27" cy="75.94" r="0.8" fill="#e6e5ed" stroke="none" stroke-width="1" opacity="0.57"/><circle cx="105.08" cy="151.91" r="1.1" fill="#edc88a" stroke="none" stroke-width="1" opacity="0.23"/><circle cx="51.28" cy="199.37" r="1.5" fill="#e6e5ed" stroke="none" stroke-width="1" opacity="0.18"/><circle cx="75.25" cy="62.47" r="0.5" fill="#a8eeeb" stroke="none" stroke-width="1" opacity="0.41"/><circle cx="195.86" cy="105.08" r="0.8" fill="#edc88a" stroke="none" stroke-width="1" opacity="0.20"/><circle cx="116.91" cy="206.79" r="1.5" fill="#a8eeeb" stroke="none" stroke-width="1" opacity="0.50"/><circle cx="136.46" cy="61.79" r="0.8" fill="#a8eeeb" stroke="none" stroke-width="1" opacity="0.26"/><circle cx="165.57" cy="148.14" r="1.5" fill="#e6e5ed" stroke="none" stroke-width="1" opacity="0.41"/><circle cx="260.62" cy="173.62" r="0.5" fill="#a8eeeb" stroke="none" stroke-width="1" opacity="0.38"/><circle cx="195.0" cy="18.08" r="0.8" fill="#e6e5ed" stroke="none" stroke-width="1" opacity="0.55"/><circle cx="52.48" cy="64.63" r="0.5" fill="#edc88a" stroke="none" stroke-width="1" opacity="0.41"/><circle cx="85.65" cy="189.35" r="1.1" fill="#e6e5ed" stroke="none" stroke-width="1" opacity="0.28"/><circle cx="79.57" cy="92.17" r="1.1" fill="#e6e5ed" stroke="none" stroke-width="1" opacity="0.41"/><path d="M0 221Q61 191 113 214T218 215T320 203V240H0Z" fill="#08151f" stroke="none" stroke-width="2.2" stroke-linejoin="round" stroke-linecap="round" /><path d="M100 161Q70 178 89 206L111 216 111 199 127 207 133 180M182 170Q180 212 209 222L230 212 212 202 230 185 215 174Z" fill="url(#cloth)" stroke="#a8eeeb" stroke-width="1" stroke-linejoin="round" stroke-linecap="round" /><path d="M123 83L84 99 68 132 54 144 59 175 83 185 103 165 101 138 128 122M195 88L229 105 248 137 263 151 253 176 229 184 211 164 217 137 190 121Z" fill="url(#metal)" stroke="#101b2a" stroke-width="2.2" stroke-linejoin="round" stroke-linecap="round" /><path d="M125 87L106 119 112 173 144 195 188 184 213 144 196 96 162 72Z" fill="#315c74" stroke="#a8eeeb" stroke-width="2" stroke-linejoin="round" stroke-linecap="round" /><path d="M121 119L141 101 176 110 193 135 182 165 151 180 126 159Z" fill="url(#metal)" stroke="#101b2a" stroke-width="2.2" stroke-linejoin="round" stroke-linecap="round" /><circle cx="157" cy="139" r="28" fill="#244558" stroke="#edc88a" stroke-width="2" /><path d="M165 123Q142 108 135 135 131 159 156 162 177 165 179 143 180 130 165 131 150 129 149 141 151 151 162 147 167 144 162 139" fill="none" stroke="#b9e2d4" stroke-width="4" stroke-linejoin="round" stroke-linecap="round" /><path d="M143 50L166 39 186 56 189 79 172 97 143 88 132 67Z" fill="url(#metal)" stroke="#101b2a" stroke-width="2.2" stroke-linejoin="round" stroke-linecap="round" /><path d="M140 48L136 26 149 42 160 22 168 41 186 26 182 50Z" fill="#79abb4" stroke="#101b2a" stroke-width="2.2" stroke-linejoin="round" stroke-linecap="round" /><path d="M141 63L160 70 179 61 177 78 160 87 143 77Z" fill="#153249" stroke="#101b2a" stroke-width="2.2" stroke-linejoin="round" stroke-linecap="round" /><circle cx="150" cy="73" r="3" fill="#a8eeeb" stroke="none" stroke-width="1" /><circle cx="171" cy="72" r="3" fill="#a8eeeb" stroke="none" stroke-width="1" /><path d="M90 107L64 91 71 115 50 112 68 134M228 117L249 95 246 118 269 108 252 138Z" fill="#accfc5" stroke="#34596d" stroke-width="2.2" stroke-linejoin="round" stroke-linecap="round" /><path d="M74 149L91 159M237 149L245 164M123 126L119 149 131 169M185 111L198 135 191 159" fill="none" stroke="#92d2cf" stroke-width="2" stroke-linejoin="round" stroke-linecap="round" /><circle cx="53" cy="70" r="8" fill="none" stroke="#a8eeeb" stroke-width="1" opacity=".4"/><circle cx="254" cy="70" r="5" fill="none" stroke="#a8eeeb" stroke-width="1" opacity=".4"/>
</svg>
