<svg xmlns="http://www.w3.org/2000/svg" width="128" height="128" viewBox="0 0 128 128">
<defs><linearGradient id="silver" x1="0" y1="0" x2=".7" y2="1"><stop stop-color="#effffa"/><stop offset=".36" stop-color="#9bc7cd"/><stop offset="1" stop-color="#376373"/></linearGradient><linearGradient id="teal" x1="0" y1="0" x2=".7" y2="1"><stop stop-color="#b4fff2"/><stop offset=".36" stop-color="#2dbda9"/><stop offset="1" stop-color="#145164"/></linearGradient><linearGradient id="red" x1="0" y1="0" x2=".7" y2="1"><stop stop-color="#ffc0ae"/><stop offset=".36" stop-color="#e46070"/><stop offset="1" stop-color="#753249"/></linearGradient><linearGradient id="gold" x1="0" y1="0" x2=".7" y2="1"><stop stop-color="#ffe2a5"/><stop offset=".36" stop-color="#db994b"/><stop offset="1" stop-color="#705035"/></linearGradient><linearGradient id="violet" x1="0" y1="0" x2=".7" y2="1"><stop stop-color="#ecd5ff"/><stop offset=".36" stop-color="#a679d0"/><stop offset="1" stop-color="#503d80"/></linearGradient><linearGradient id="boss" x1="0" y1="0" x2=".7" y2="1"><stop stop-color="#f1a696"/><stop offset=".36" stop-color="#a14f68"/><stop offset="1" stop-color="#482944"/></linearGradient><radialGradient id="aura"><stop stop-color="#6dffe0" stop-opacity=".65"/><stop offset=".5" stop-color="#6dffe0" stop-opacity=".19"/><stop offset="1" stop-color="#6dffe0" stop-opacity="0"/></radialGradient><radialGradient id="fire"><stop stop-color="#ffb776" stop-opacity=".65"/><stop offset=".5" stop-color="#ffb776" stop-opacity=".19"/><stop offset="1" stop-color="#ffb776" stop-opacity="0"/></radialGradient><radialGradient id="cloud"><stop stop-color="#326c8f" stop-opacity=".65"/><stop offset=".5" stop-color="#326c8f" stop-opacity=".19"/><stop offset="1" stop-color="#326c8f" stop-opacity="0"/></radialGradient><radialGradient id="violet_cloud"><stop stop-color="#5a457e" stop-opacity=".65"/><stop offset=".5" stop-color="#5a457e" stop-opacity=".19"/><stop offset="1" stop-color="#5a457e" stop-opacity="0"/></radialGradient><radialGradient id="planet"><stop stop-color="#386b81" stop-opacity=".65"/><stop offset=".5" stop-color="#386b81" stop-opacity=".19"/><stop offset="1" stop-color="#386b81" stop-opacity="0"/></radialGradient><linearGradient id="exhaust" x1="0" y1="0" x2="0" y2="1"><stop stop-color="#d8ffff"/><stop offset=".3" stop-color="#60fce0"/><stop offset="1" stop-color="#29d8ea" stop-opacity="0"/></linearGradient></defs>
<g transform="translate(64 64)" opacity="1.000"><g transform="translate(-29 -28) rotate(180)" opacity="1.000"><path d="M-5 0L0 10L5 0Z" fill="url(#exhaust)" stroke="none" stroke-width="1.5" stroke-linejoin="round"/><path d="M-2 0L0 10L2 0Z" fill="#e8fff7" stroke="none" stroke-width="1.5" stroke-linejoin="round"/></g><g transform="translate(29 -28) rotate(180)" opacity="1.000"><path d="M-5 0L0 10L5 0Z" fill="url(#exhaust)" stroke="none" stroke-width="1.5" stroke-linejoin="round"/><path d="M-2 0L0 10L2 0Z" fill="#e8fff7" stroke="none" stroke-width="1.5" stroke-linejoin="round"/></g><g transform="translate(0 0) rotate(0)" opacity="1.000"><path d="M-33-12L33-12L33 13L-33 13Z" fill="#313344" stroke="#cea770" stroke-width="1" stroke-linejoin="round"/></g><g transform="translate(0 0) rotate(0)" opacity="1.000"><g transform="scale(-1 1)" opacity="1.000"><path d="M19-32L33-32L40-20L39 29L27 39L18 23Z" fill="url(#gold)" stroke="#06121e" stroke-width="1.5" stroke-linejoin="round"/><path d="M24-27L30-27L34-20V-3L24-3Z" fill="#423b3c" stroke="#ebc68e" stroke-width="0.7" stroke-linejoin="round"/><path d="M24 4H35V23L30 29L24 21Z" fill="#66503f" stroke="#f4cf96" stroke-width="0.9" stroke-linejoin="round"/><path d="M27 7V21M31 7V21M22-17H31M22-12H31" fill="none" stroke="#edc187" stroke-width="1.3" stroke-linejoin="round"/><circle cx="29" cy="-22" r="2" fill="#ffead0" /></g></g><g transform="translate(0 0) rotate(0)" opacity="1.000"><g transform="scale(1 1)" opacity="1.000"><path d="M19-32L33-32L40-20L39 29L27 39L18 23Z" fill="url(#gold)" stroke="#06121e" stroke-width="1.5" stroke-linejoin="round"/><path d="M24-27L30-27L34-20V-3L24-3Z" fill="#423b3c" stroke="#ebc68e" stroke-width="0.7" stroke-linejoin="round"/><path d="M24 4H35V23L30 29L24 21Z" fill="#66503f" stroke="#f4cf96" stroke-width="0.9" stroke-linejoin="round"/><path d="M27 7V21M31 7V21M22-17H31M22-12H31" fill="none" stroke="#edc187" stroke-width="1.3" stroke-linejoin="round"/><circle cx="29" cy="-22" r="2" fill="#ffead0" /></g></g><g transform="translate(0 0) rotate(0)" opacity="1.000"><path d="M-14-19L0-29L14-19L19 4L12 19L-12 19L-19 4Z" fill="url(#gold)" stroke="#06121e" stroke-width="1.5" stroke-linejoin="round"/><circle cx="0" cy="-4" r="12" fill="#373344" stroke="#f5c389" stroke-width="1.4"/><circle cx="0" cy="-4" r="7" fill="#ffcc88" /><circle cx="0" cy="-4" r="3.5" fill="#e8fff7" /><g transform="translate(0 0)" opacity="1.000"><path d="M-6 8H6L5 39H-5Z" fill="#333341" stroke="#ffcf94" stroke-width="1.2" stroke-linejoin="round"/><rect x="-3" y="18" width="6" height="16" fill="#d8a260" /><rect x="-7" y="33" width="14" height="5" fill="#f6cc94" /></g></g></g>
</svg>
