<svg xmlns="http://www.w3.org/2000/svg" width="320" height="240" viewBox="0 0 320 240">
<defs>
    <radialGradient id="back"><stop stop-color="#3e3140"/><stop offset="1" stop-color="#081722"/></radialGradient>
    <radialGradient id="aura"><stop stop-color="#d79a55" stop-opacity=".45"/><stop offset="1" stop-color="#d79a55" stop-opacity="0"/></radialGradient>
    <linearGradient id="metal" x1="0" y1="0" x2="1" y2=".8"><stop stop-color="#fff1ae"/><stop offset=".4" stop-color="#d79a55"/><stop offset=".68" stop-color="#6f3342"/><stop offset="1" stop-color="#d79a55"/></linearGradient>
    <linearGradient id="cloth" x1="0" y1="0" x2=".8" y2="1"><stop stop-color="#b35e60"/><stop offset=".55" stop-color="#592c42"/><stop offset="1" stop-color="#0c202f"/></linearGradient>
    <linearGradient id="blade" x1="0" y1="0" x2="1" y2="0"><stop stop-color="#eef8e4"/><stop offset=".45" stop-color="#c5dfd5"/><stop offset=".48" stop-color="#557589"/><stop offset="1" stop-color="#a0c4bf"/></linearGradient>
    <linearGradient id="skin" x1="0" y1="0" x2="1" y2="1"><stop stop-color="#f3d9ad"/><stop offset=".55" stop-color="#d7ad84"/><stop offset="1" stop-color="#8e6965"/></linearGradient>
    <radialGradient id="orb"><stop stop-color="#ffffe1"/><stop offset=".3" stop-color="#fff1ae"/><stop offset=".7" stop-color="#d79a55"/><stop offset="1" stop-color="#6f3342"/></radialGradient>
    </defs><path d="M139 160L107 179 106 218 140 221 157 189 171 220 207 222 206 182 180 157Z" fill="#46454d" stroke="#e5ad71" stroke-width="2.2" stroke-linejoin="round" stroke-linecap="round" /><path d="M118 94L86 103 66 143 80 160 66 180 89 194 110 170 114 136 133 122M195 92L225 109 250 155 245 181 219 189 205 169 205 135 182 121Z" fill="#48444a" stroke="#101b2a" stroke-width="2.2" stroke-linejoin="round" stroke-linecap="round" /><path d="M124 92L112 131 127 176 179 185 207 142 194 99 165 83Z" fill="url(#metal)" stroke="#101b2a" stroke-width="2.2" stroke-linejoin="round" stroke-linecap="round" /><path d="M135 117L127 146 146 170 178 165 187 134 172 113Z" fill="#302e3d" stroke="#101b2a" stroke-width="2.2" stroke-linejoin="round" stroke-linecap="round" /><path d="M154 120L176 133 169 154 154 165 143 142Z" fill="url(#orb)" stroke="#edc88a" stroke-width="2" stroke-linejoin="round" stroke-linecap="round" /><path d="M96 118L90 143 102 150M224 124L228 153 218 163M120 188L126 201 118 218M179 188L188 201 197 207M142 171L157 183 174 175" fill="none" stroke="#f8bb6b" stroke-width="3" stroke-linejoin="round" stroke-linecap="round" /><path d="M72 176L63 163 70 145 80 150M239 180L254 176 254 154 245 150" fill="#5f5354" stroke="#edc88a" stroke-width="2.2" stroke-linejoin="round" stroke-linecap="round" />
</svg>
