<svg xmlns="http://www.w3.org/2000/svg" width="64" height="80" viewBox="0 0 64 80"><g stroke-linejoin="round" stroke-linecap="round"><ellipse cx="34" cy="69" rx="27" ry="7" fill="#234b47" opacity="0.18"/><rect x="12" y="18" width="37" height="49" rx="0" fill="#a8c9b5" stroke="#28464e" stroke-width="1.3"/><path d="M49 18L58 13V62L49 67Z" fill="#649b8f" stroke="#28464e" stroke-width="1.4"/><path d="M9 18L19 11H58V18Z" fill="#dae0c4" stroke="#28464e" stroke-width="1.4"/><rect x="9" y="18" width="42" height="5" rx="0" fill="#28464e" stroke="#28464e" stroke-width="1.3"/><rect x="17" y="29" width="6" height="9" rx="0.5" fill="#baded8" stroke="#28464e" stroke-width="1.3"/><path d="M18 38L22 38" fill="none" stroke="#f9ebca" stroke-width="1.8"/><rect x="28" y="29" width="6" height="9" rx="0.5" fill="#baded8" stroke="#28464e" stroke-width="1.3"/><path d="M29 38L33 38" fill="none" stroke="#f9ebca" stroke-width="1.8"/><rect x="39" y="29" width="6" height="9" rx="0.5" fill="#baded8" stroke="#28464e" stroke-width="1.3"/><path d="M40 38L44 38" fill="none" stroke="#f9ebca" stroke-width="1.8"/><rect x="17" y="44" width="6" height="9" rx="0.5" fill="#baded8" stroke="#28464e" stroke-width="1.3"/><path d="M18 53L22 53" fill="none" stroke="#f9ebca" stroke-width="1.8"/><rect x="28" y="44" width="6" height="9" rx="0.5" fill="#baded8" stroke="#28464e" stroke-width="1.3"/><path d="M29 53L33 53" fill="none" stroke="#f9ebca" stroke-width="1.8"/><rect x="39" y="44" width="6" height="9" rx="0.5" fill="#baded8" stroke="#28464e" stroke-width="1.3"/><path d="M40 53L44 53" fill="none" stroke="#f9ebca" stroke-width="1.8"/><rect x="28" y="57" width="9" height="10" rx="0" fill="#f9ebca" stroke="#28464e" stroke-width="1.3"/><path d="M13 41L48 41" fill="none" stroke="#e8e7cd" stroke-width="3"/><path d="M13 56L48 56" fill="none" stroke="#e8e7cd" stroke-width="3"/><rect x="20" y="7" width="11" height="5" rx="0" fill="#de826e" stroke="#28464e" stroke-width="1.3"/><path d="M52 30L55 28" fill="none" stroke="#c5e2ce" stroke-width="2"/><path d="M52 44L55 42" fill="none" stroke="#c5e2ce" stroke-width="2"/></g></svg>
