<svg xmlns="http://www.w3.org/2000/svg" width="1280" height="720" viewBox="0 0 1280 720"><defs>
<linearGradient id="cloth" x1="0" y1="0" x2="1" y2="1"><stop stop-color="#385359"/><stop offset=".48" stop-color="#173139"/><stop offset="1" stop-color="#08171f"/></linearGradient>
<linearGradient id="paper" x1="0" y1="0" x2="1" y2="1"><stop stop-color="#eadbb6"/><stop offset=".6" stop-color="#bcaa83"/><stop offset="1" stop-color="#6b7264"/></linearGradient>
<linearGradient id="red" x1="0" y1="0" x2="1" y2="1"><stop stop-color="#c4634e"/><stop offset=".5" stop-color="#953e35"/><stop offset="1" stop-color="#482c2d"/></linearGradient>
<linearGradient id="sky" x1="0" y1="0" x2="0" y2="1"><stop stop-color="#07131c"/><stop offset=".55" stop-color="#1b3640"/><stop offset="1" stop-color="#607c78"/></linearGradient>
<radialGradient id="glow"><stop stop-color="#a7e6ce" stop-opacity=".7"/><stop offset=".35" stop-color="#69b3ac" stop-opacity=".22"/><stop offset="1" stop-color="#69b3ac" stop-opacity="0"/></radialGradient>
<pattern id="grain" width="31" height="37" patternUnits="userSpaceOnUse"><path d="M2 3h2m9 8h1m-5 14h2m17-4h1m-4 13h2m-6-31h1M1 18h1" stroke="#e6d7ad" stroke-opacity=".17" stroke-width=".7"/></pattern>
</defs><path d="M0 657Q266 610 501 669T925 650T1280 625V720H0Z" fill="#09171e" stroke="none" stroke-width="1.5" /><g transform="translate(-26 719) scale(2.8)" opacity="1"><path d="M-18 0L-12 -77L-33 -118L-65 -134L-86 -167L-43 -137L-23 -121L-30 -189L-15 -165L-9 -113L8 -139L19 -204L21 -159L47 -187L66 -186L37 -161L16 -128L2 -72L14 0Z" fill="#09171e" stroke="#51605a" stroke-width="1" /></g><g transform="translate(1310 720) scale(2.7)" opacity="1"><path d="M-18 0L-12 -77L-33 -118L-65 -134L-86 -167L-43 -137L-23 -121L-30 -189L-15 -165L-9 -113L8 -139L19 -204L21 -159L47 -187L66 -186L37 -161L16 -128L2 -72L14 0Z" fill="#09171e" stroke="#51605a" stroke-width="1" /></g><path d="M663 740Q652 702 637 692M663 740Q667 705 676 686" fill="none" stroke="#20373a" stroke-width="2" /><path d="M1269 676Q1258 638 1243 628M1269 676Q1273 641 1282 622" fill="none" stroke="#20373a" stroke-width="2" /><path d="M542 694Q531 656 516 646M542 694Q546 659 555 640" fill="none" stroke="#20373a" stroke-width="2" /><path d="M408 708Q397 670 382 660M408 708Q412 673 421 654" fill="none" stroke="#20373a" stroke-width="2" /><path d="M177 700Q166 662 151 652M177 700Q181 665 190 646" fill="none" stroke="#20373a" stroke-width="2" /><path d="M1049 682Q1038 644 1023 634M1049 682Q1053 647 1062 628" fill="none" stroke="#20373a" stroke-width="2" /><path d="M1217 699Q1206 661 1191 651M1217 699Q1221 664 1230 645" fill="none" stroke="#20373a" stroke-width="2" /><path d="M1033 678Q1022 640 1007 630M1033 678Q1037 643 1046 624" fill="none" stroke="#20373a" stroke-width="2" /><path d="M1078 721Q1067 683 1052 673M1078 721Q1082 686 1091 667" fill="none" stroke="#20373a" stroke-width="2" /><path d="M936 691Q925 653 910 643M936 691Q940 656 949 637" fill="none" stroke="#20373a" stroke-width="2" /><path d="M715 696Q704 658 689 648M715 696Q719 661 728 642" fill="none" stroke="#20373a" stroke-width="2" /><path d="M75 719Q64 681 49 671M75 719Q79 684 88 665" fill="none" stroke="#20373a" stroke-width="2" /><path d="M1242 678Q1231 640 1216 630M1242 678Q1246 643 1255 624" fill="none" stroke="#20373a" stroke-width="2" /><path d="M795 699Q784 661 769 651M795 699Q799 664 808 645" fill="none" stroke="#20373a" stroke-width="2" /><path d="M304 716Q293 678 278 668M304 716Q308 681 317 662" fill="none" stroke="#20373a" stroke-width="2" /><path d="M895 732Q884 694 869 684M895 732Q899 697 908 678" fill="none" stroke="#20373a" stroke-width="2" /><path d="M199 677Q188 639 173 629M199 677Q203 642 212 623" fill="none" stroke="#20373a" stroke-width="2" /><path d="M511 693Q500 655 485 645M511 693Q515 658 524 639" fill="none" stroke="#20373a" stroke-width="2" /><path d="M319 706Q308 668 293 658M319 706Q323 671 332 652" fill="none" stroke="#20373a" stroke-width="2" /><path d="M1048 720Q1037 682 1022 672M1048 720Q1052 685 1061 666" fill="none" stroke="#20373a" stroke-width="2" /><path d="M610 677Q599 639 584 629M610 677Q614 642 623 623" fill="none" stroke="#20373a" stroke-width="2" /><path d="M514 719Q503 681 488 671M514 719Q518 684 527 665" fill="none" stroke="#20373a" stroke-width="2" /><path d="M426 725Q415 687 400 677M426 725Q430 690 439 671" fill="none" stroke="#20373a" stroke-width="2" /><path d="M59 683Q48 645 33 635M59 683Q63 648 72 629" fill="none" stroke="#20373a" stroke-width="2" /><path d="M199 706Q188 668 173 658M199 706Q203 671 212 652" fill="none" stroke="#20373a" stroke-width="2" /><path d="M201 712Q190 674 175 664M201 712Q205 677 214 658" fill="none" stroke="#20373a" stroke-width="2" /><path d="M284 728Q273 690 258 680M284 728Q288 693 297 674" fill="none" stroke="#20373a" stroke-width="2" /><path d="M978 738Q967 700 952 690M978 738Q982 703 991 684" fill="none" stroke="#20373a" stroke-width="2" /><path d="M1158 720Q1147 682 1132 672M1158 720Q1162 685 1171 666" fill="none" stroke="#20373a" stroke-width="2" /><path d="M604 687Q593 649 578 639M604 687Q608 652 617 633" fill="none" stroke="#20373a" stroke-width="2" /><path d="M419 713Q408 675 393 665M419 713Q423 678 432 659" fill="none" stroke="#20373a" stroke-width="2" /><path d="M1272 702Q1261 664 1246 654M1272 702Q1276 667 1285 648" fill="none" stroke="#20373a" stroke-width="2" /><path d="M328 731Q317 693 302 683M328 731Q332 696 341 677" fill="none" stroke="#20373a" stroke-width="2" /><path d="M975 716Q964 678 949 668M975 716Q979 681 988 662" fill="none" stroke="#20373a" stroke-width="2" /><path d="M533 687Q522 649 507 639M533 687Q537 652 546 633" fill="none" stroke="#20373a" stroke-width="2" /><path d="M1277 708Q1266 670 1251 660M1277 708Q1281 673 1290 654" fill="none" stroke="#20373a" stroke-width="2" /><path d="M50 679Q39 641 24 631M50 679Q54 644 63 625" fill="none" stroke="#20373a" stroke-width="2" /><path d="M386 703Q375 665 360 655M386 703Q390 668 399 649" fill="none" stroke="#20373a" stroke-width="2" /><path d="M966 716Q955 678 940 668M966 716Q970 681 979 662" fill="none" stroke="#20373a" stroke-width="2" /><path d="M1032 739Q1021 701 1006 691M1032 739Q1036 704 1045 685" fill="none" stroke="#20373a" stroke-width="2" /><path d="M629 706Q618 668 603 658M629 706Q633 671 642 652" fill="none" stroke="#20373a" stroke-width="2" /><path d="M552 693Q541 655 526 645M552 693Q556 658 565 639" fill="none" stroke="#20373a" stroke-width="2" /><path d="M109 738Q98 700 83 690M109 738Q113 703 122 684" fill="none" stroke="#20373a" stroke-width="2" /><path d="M1101 734Q1090 696 1075 686M1101 734Q1105 699 1114 680" fill="none" stroke="#20373a" stroke-width="2" /><path d="M488 691Q477 653 462 643M488 691Q492 656 501 637" fill="none" stroke="#20373a" stroke-width="2" /><path d="M1231 686Q1220 648 1205 638M1231 686Q1235 651 1244 632" fill="none" stroke="#20373a" stroke-width="2" /><path d="M433 731Q422 693 407 683M433 731Q437 696 446 677" fill="none" stroke="#20373a" stroke-width="2" /><path d="M570 734Q559 696 544 686M570 734Q574 699 583 680" fill="none" stroke="#20373a" stroke-width="2" /><path d="M870 708Q859 670 844 660M870 708Q874 673 883 654" fill="none" stroke="#20373a" stroke-width="2" /><path d="M638 723Q627 685 612 675M638 723Q642 688 651 669" fill="none" stroke="#20373a" stroke-width="2" /><path d="M1095 715Q1084 677 1069 667M1095 715Q1099 680 1108 661" fill="none" stroke="#20373a" stroke-width="2" /><path d="M1276 737Q1265 699 1250 689M1276 737Q1280 702 1289 683" fill="none" stroke="#20373a" stroke-width="2" /><path d="M1127 738Q1116 700 1101 690M1127 738Q1131 703 1140 684" fill="none" stroke="#20373a" stroke-width="2" /><path d="M12 727Q1 689 -14 679M12 727Q16 692 25 673" fill="none" stroke="#20373a" stroke-width="2" /><path d="M442 733Q431 695 416 685M442 733Q446 698 455 679" fill="none" stroke="#20373a" stroke-width="2" /><path d="M620 739Q609 701 594 691M620 739Q624 704 633 685" fill="none" stroke="#20373a" stroke-width="2" /><path d="M595 676Q584 638 569 628M595 676Q599 641 608 622" fill="none" stroke="#20373a" stroke-width="2" /><path d="M102 729Q91 691 76 681M102 729Q106 694 115 675" fill="none" stroke="#20373a" stroke-width="2" /><path d="M870 683Q859 645 844 635M870 683Q874 648 883 629" fill="none" stroke="#20373a" stroke-width="2" /><path d="M661 706Q650 668 635 658M661 706Q665 671 674 652" fill="none" stroke="#20373a" stroke-width="2" /><path d="M699 694Q688 656 673 646M699 694Q703 659 712 640" fill="none" stroke="#20373a" stroke-width="2" /><path d="M915 719Q904 681 889 671M915 719Q919 684 928 665" fill="none" stroke="#20373a" stroke-width="2" /><path d="M1214 736Q1203 698 1188 688M1214 736Q1218 701 1227 682" fill="none" stroke="#20373a" stroke-width="2" /><path d="M101 711Q90 673 75 663M101 711Q105 676 114 657" fill="none" stroke="#20373a" stroke-width="2" /><path d="M780 688Q769 650 754 640M780 688Q784 653 793 634" fill="none" stroke="#20373a" stroke-width="2" /><path d="M1162 711Q1151 673 1136 663M1162 711Q1166 676 1175 657" fill="none" stroke="#20373a" stroke-width="2" /><path d="M629 714Q618 676 603 666M629 714Q633 679 642 660" fill="none" stroke="#20373a" stroke-width="2" /><path d="M45 709Q34 671 19 661M45 709Q49 674 58 655" fill="none" stroke="#20373a" stroke-width="2" /><path d="M772 716Q761 678 746 668M772 716Q776 681 785 662" fill="none" stroke="#20373a" stroke-width="2" /><path d="M836 707Q825 669 810 659M836 707Q840 672 849 653" fill="none" stroke="#20373a" stroke-width="2" /><path d="M745 688Q734 650 719 640M745 688Q749 653 758 634" fill="none" stroke="#20373a" stroke-width="2" /><path d="M1157 732Q1146 694 1131 684M1157 732Q1161 697 1170 678" fill="none" stroke="#20373a" stroke-width="2" /><path d="M1241 735Q1230 697 1215 687M1241 735Q1245 700 1254 681" fill="none" stroke="#20373a" stroke-width="2" /><path d="M152 707Q141 669 126 659M152 707Q156 672 165 653" fill="none" stroke="#20373a" stroke-width="2" /><path d="M1019 695Q1008 657 993 647M1019 695Q1023 660 1032 641" fill="none" stroke="#20373a" stroke-width="2" /><path d="M986 730Q975 692 960 682M986 730Q990 695 999 676" fill="none" stroke="#20373a" stroke-width="2" /><path d="M808 698Q797 660 782 650M808 698Q812 663 821 644" fill="none" stroke="#20373a" stroke-width="2" /><path d="M919 738Q908 700 893 690M919 738Q923 703 932 684" fill="none" stroke="#20373a" stroke-width="2" /><path d="M923 691Q912 653 897 643M923 691Q927 656 936 637" fill="none" stroke="#20373a" stroke-width="2" /><path d="M1259 691Q1248 653 1233 643M1259 691Q1263 656 1272 637" fill="none" stroke="#20373a" stroke-width="2" /><path d="M126 684Q115 646 100 636M126 684Q130 649 139 630" fill="none" stroke="#20373a" stroke-width="2" /><path d="M1094 732Q1083 694 1068 684M1094 732Q1098 697 1107 678" fill="none" stroke="#20373a" stroke-width="2" /><path d="M485 693Q474 655 459 645M485 693Q489 658 498 639" fill="none" stroke="#20373a" stroke-width="2" /><path d="M347 699Q336 661 321 651M347 699Q351 664 360 645" fill="none" stroke="#20373a" stroke-width="2" /><path d="M928 676Q917 638 902 628M928 676Q932 641 941 622" fill="none" stroke="#20373a" stroke-width="2" /><path d="M740 693Q729 655 714 645M740 693Q744 658 753 639" fill="none" stroke="#20373a" stroke-width="2" /><path d="M22 736Q11 698 -4 688M22 736Q26 701 35 682" fill="none" stroke="#20373a" stroke-width="2" /><path d="M287 691Q276 653 261 643M287 691Q291 656 300 637" fill="none" stroke="#20373a" stroke-width="2" /><path d="M316 676Q305 638 290 628M316 676Q320 641 329 622" fill="none" stroke="#20373a" stroke-width="2" /><path d="M983 739Q972 701 957 691M983 739Q987 704 996 685" fill="none" stroke="#20373a" stroke-width="2" /><path d="M9 678Q-2 640 -17 630M9 678Q13 643 22 624" fill="none" stroke="#20373a" stroke-width="2" /><path d="M115 722Q104 684 89 674M115 722Q119 687 128 668" fill="none" stroke="#20373a" stroke-width="2" /><path d="M816 688Q805 650 790 640M816 688Q820 653 829 634" fill="none" stroke="#20373a" stroke-width="2" /><path d="M559 708Q548 670 533 660M559 708Q563 673 572 654" fill="none" stroke="#20373a" stroke-width="2" /><path d="M1145 716Q1134 678 1119 668M1145 716Q1149 681 1158 662" fill="none" stroke="#20373a" stroke-width="2" /><path d="M152 672L155 598L141 587L165 568L189 587L175 598L178 672Z" fill="url(#cloth)" stroke="#baa572" stroke-width="1" /><ellipse cx="165" cy="607" rx="10" ry="14" fill="url(#glow)" opacity="1"/><path d="M1100 672L1103 598L1089 587L1113 568L1137 587L1123 598L1126 672Z" fill="url(#cloth)" stroke="#baa572" stroke-width="1" /><ellipse cx="1113" cy="607" rx="10" ry="14" fill="url(#glow)" opacity="1"/></svg>
