<svg xmlns="http://www.w3.org/2000/svg" width="96" height="96" viewBox="0 0 96 96"><defs>
<linearGradient id="cloth" x2="0.8" y2="1"><stop stop-color="#59a6a4"/><stop offset=".45" stop-color="#245963"/><stop offset="1" stop-color="#112637"/></linearGradient>
<linearGradient id="gold" x2=".7" y2="1"><stop stop-color="#fff0ac"/><stop offset=".45" stop-color="#d8a454"/><stop offset="1" stop-color="#755333"/></linearGradient>
<linearGradient id="stone" x2=".8" y2="1"><stop stop-color="#607e82"/><stop offset=".5" stop-color="#304955"/><stop offset="1" stop-color="#142633"/></linearGradient>
<linearGradient id="bone" x2=".7" y2="1"><stop stop-color="#eee5bd"/><stop offset="1" stop-color="#7c8c86"/></linearGradient>
<radialGradient id="glow"><stop stop-color="#ffe299" stop-opacity=".7"/><stop offset=".3" stop-color="#c89950" stop-opacity=".2"/><stop offset="1" stop-color="#be8d47" stop-opacity="0"/></radialGradient>
</defs><ellipse cx="48" cy="84" rx="27" ry="7" fill="#050f1c" stroke="none" stroke-width="0"/><path d="M44 42Q20 8 9 22L14 46 35 54Q9 51 15 77 32 80 44 59M52 42Q76 8 87 22L82 46 61 54Q87 51 81 77 64 80 52 59" fill="url(#cloth)" stroke="#101c28" stroke-width="2" stroke-linejoin="round" stroke-linecap="round"/><path d="M40 43L15 27 26 46Z" fill="url(#gold)" stroke="#101c28" stroke-width="2" stroke-linejoin="round" stroke-linecap="round"/><ellipse cx="26" cy="37" rx="5" ry="6" fill="#102d3c" stroke="none" stroke-width="1"/><ellipse cx="26" cy="37" rx="2" ry="3" fill="#e4c786" stroke="none" stroke-width="1"/><path d="M41 57L24 68 25 58" fill="none" stroke="#c5ad77" stroke-width="2" stroke-linejoin="round" stroke-linecap="round"/><path d="M56 43L81 27 70 46Z" fill="url(#gold)" stroke="#101c28" stroke-width="2" stroke-linejoin="round" stroke-linecap="round"/><ellipse cx="70" cy="37" rx="5" ry="6" fill="#102d3c" stroke="none" stroke-width="1"/><ellipse cx="70" cy="37" rx="2" ry="3" fill="#e4c786" stroke="none" stroke-width="1"/><path d="M55 57L72 68 71 58" fill="none" stroke="#c5ad77" stroke-width="2" stroke-linejoin="round" stroke-linecap="round"/><ellipse cx="48" cy="51" rx="7" ry="23" fill="url(#gold)" stroke="#18313b" stroke-width="2"/><ellipse cx="48" cy="31" rx="9" ry="9" fill="url(#stone)" stroke="#17303a" stroke-width="2"/><path d="M43 25Q35 10 30 15M53 25Q61 10 66 15" fill="none" stroke="#d5bb80" stroke-width="2" stroke-linejoin="round" stroke-linecap="round"/><ellipse cx="44" cy="30" rx="2" ry="3" fill="#e3f0bf" stroke="none" stroke-width="1"/><ellipse cx="52" cy="30" rx="2" ry="3" fill="#e3f0bf" stroke="none" stroke-width="1"/></svg>
